ffmpeg started on 2016-11-28 at 00:47:18
Report written to "Output/NVENCh264/results/ffmpeg/old_town_cross_2160p50llhp5000k.log"
Command line:
Tools/ffmpeg/ffmpeg -benchmark -y -i Input/y4m/old_town_cross_2160p50.y4m -c:v h264_nvenc -preset llhp -b:v 5000k -an Output/NVENCh264/encoded/old_town_cross_2160p50llhp5000k.mkv
ffmpeg version N-82227-gdb23fde Copyright (c) 2000-2016 the FFmpeg developers
  built with gcc 5.4.0 (Ubuntu 5.4.0-6ubuntu1~16.04.2) 20160609
  configuration: --prefix=/home/jaroslav/ffmpeg_build --pkg-config-flags=--static --extra-cflags=-I/home/jaroslav/ffmpeg_build/include --extra-ldflags=-L/home/jaroslav/ffmpeg_build/lib --bindir=/home/jaroslav/bin --enable-gpl --enable-libass --enable-libfdk-aac --enable-libfreetype --enable-libmp3lame --enable-libopus --enable-libtheora --enable-libvorbis --enable-libvpx --enable-libx264 --enable-libx265 --enable-nvenc --enable-libmfx --enable-libxvid --enable-libgsm --enable-libopencore-amrnb --enable-version3 --enable-nonfree
  libavutil      55. 35.100 / 55. 35.100
  libavcodec     57. 66.101 / 57. 66.101
  libavformat    57. 57.100 / 57. 57.100
  libavdevice    57.  2.100 / 57.  2.100
  libavfilter     6. 66.100 /  6. 66.100
  libswscale      4.  3.100 /  4.  3.100
  libswresample   2.  4.100 /  2.  4.100
  libpostproc    54.  2.100 / 54.  2.100
Input #0, yuv4mpegpipe, from 'Input/y4m/old_town_cross_2160p50.y4m':
  Duration: 00:00:10.00, start: 0.000000, bitrate: 4976642 kb/s
    Stream #0:0: Video: rawvideo (I420 / 0x30323449), yuv420p(progressive), 3840x2160, SAR 1:1 DAR 16:9, 50 fps, 50 tbr, 50 tbn, 50 tbc
[h264_nvenc @ 0x421c120] The variable bitrate rate-control requires the 'qmin' and/or 'qmax' option set.
Output #0, matroska, to 'Output/NVENCh264/encoded/old_town_cross_2160p50llhp5000k.mkv':
  Metadata:
    encoder         : Lavf57.57.100
    Stream #0:0: Video: h264 (h264_nvenc) (Main) (H264 / 0x34363248), yuv420p, 3840x2160 [SAR 1:1 DAR 16:9], q=-1--1, 5000 kb/s, 50 fps, 1k tbn, 50 tbc
    Metadata:
      encoder         : Lavc57.66.101 h264_nvenc
    Side data:
      cpb: bitrate max/min/avg: 0/0/5000000 buffer size: 10000000 vbv_delay: -1
Stream mapping:
  Stream #0:0 -> #0:0 (rawvideo (native) -> h264 (h264_nvenc))
Press [q] to stop, [?] for help
frame=   20 fps=0.0 q=0.0 size=       0kB time=00:00:00.00 bitrate=N/A speed=   0x    frame=   38 fps= 36 q=39.0 size=       1kB time=00:00:00.14 bitrate=  42.4kbits/s speed=0.135x    frame=   48 fps= 31 q=38.0 size=       1kB time=00:00:00.34 bitrate=  17.5kbits/s speed=0.217x    frame=   66 fps= 32 q=36.0 size=       1kB time=00:00:00.70 bitrate=   8.5kbits/s speed=0.336x    frame=   84 fps= 32 q=36.0 size=       1kB time=00:00:01.06 bitrate=   5.6kbits/s speed=0.407x    frame=  102 fps= 33 q=37.0 size=       1kB time=00:00:01.42 bitrate=   4.2kbits/s speed=0.455x    frame=  120 fps= 33 q=34.0 size=       1kB time=00:00:01.78 bitrate=   3.4kbits/s speed=0.49x    frame=  138 fps= 33 q=35.0 size=       1kB time=00:00:02.14 bitrate=   2.8kbits/s speed=0.516x    frame=  156 fps= 33 q=34.0 size=       1kB time=00:00:02.50 bitrate=   2.4kbits/s speed=0.536x    frame=  174 fps= 34 q=35.0 size=       1kB time=00:00:02.86 bitrate=   2.1kbits/s speed=0.552x    frame=  192 fps= 34 q=34.0 size=       1kB time=00:00:03.22 bitrate=   1.9kbits/s speed=0.566x    frame=  210 fps= 34 q=34.0 size=       1kB time=00:00:03.58 bitrate=   1.7kbits/s speed=0.577x    frame=  228 fps= 34 q=34.0 size=       1kB time=00:00:03.94 bitrate=   1.5kbits/s speed=0.586x    frame=  246 fps= 34 q=34.0 size=       1kB time=00:00:04.30 bitrate=   1.4kbits/s speed=0.594x    frame=  264 fps= 34 q=34.0 size=       1kB time=00:00:04.66 bitrate=   1.3kbits/s speed=0.601x    frame=  282 fps= 34 q=35.0 size=    2936kB time=00:00:05.02 bitrate=4791.0kbits/s speed=0.607x    frame=  300 fps= 34 q=37.0 size=    2936kB time=00:00:05.38 bitrate=4470.5kbits/s speed=0.612x    frame=  318 fps= 34 q=37.0 size=    2936kB time=00:00:05.74 bitrate=4190.1kbits/s speed=0.617x    frame=  330 fps= 33 q=36.0 size=    2936kB time=00:00:05.98 bitrate=4022.0kbits/s speed=0.601x    frame=  335 fps= 32 q=36.0 size=    2936kB time=00:00:06.08 bitrate=3955.8kbits/s speed=0.58x    frame=  353 fps= 32 q=36.0 size=    2936kB time=00:00:06.44 bitrate=3734.7kbits/s speed=0.586x    frame=  371 fps= 32 q=37.0 size=    2936kB time=00:00:06.80 bitrate=3537.1kbits/s speed=0.591x    frame=  388 fps= 32 q=36.0 size=    2936kB time=00:00:07.14 bitrate=3368.6kbits/s speed=0.581x    frame=  406 fps= 32 q=36.0 size=    2936kB time=00:00:07.50 bitrate=3207.0kbits/s speed=0.586x    frame=  424 fps= 32 q=36.0 size=    2936kB time=00:00:07.86 bitrate=3060.1kbits/s speed=0.591x    frame=  442 fps= 32 q=35.0 size=    2936kB time=00:00:08.22 bitrate=2926.1kbits/s speed=0.595x    frame=  460 fps= 32 q=35.0 size=    2936kB time=00:00:08.58 bitrate=2803.3kbits/s speed=0.599x    frame=  465 fps= 31 q=35.0 size=    2936kB time=00:00:08.68 bitrate=2771.1kbits/s speed=0.584x    frame=  483 fps= 31 q=36.0 size=    2936kB time=00:00:09.04 bitrate=2660.7kbits/s speed=0.588x    frame=  500 fps= 31 q=35.0 size=    2936kB time=00:00:09.38 bitrate=2564.3kbits/s speed=0.59x    frame=  500 fps= 31 q=36.0 Lsize=    5987kB time=00:00:09.98 bitrate=4914.3kbits/s speed=0.627x    
video:5983kB audio:0kB subtitle:0kB other streams:0kB global headers:0kB muxing overhead: 0.071244%
bench: utime=1.136s
bench: maxrss=1396812kB
